<?xml version="1.0" encoding="UTF-8"?>
<!-- Generator: Adobe Illustrator 17.1.0, SVG Export Plug-In . SVG Version: 6.00 Build 0)  -->
<svg version="1.1" xmlns="http://www.w3.org/2000/svg" xmlns:xlink="http://www.w3.org/1999/xlink" x="0px" y="0px" width="230px" height="230px" viewBox="0 0 230 230" enable-background="new 0 0 230 230" xml:space="preserve">

	<g extraneous="self">
		<g id="Bg" display="none">
		</g>
		<g id="Graphics">
			<g>
				<rect y="0" display="none" fill="#E6E9EC" width="230" height="230"/>
				<g id="Ugh__x3C_Sigh_x3E__2_">
					<g>
						<path fill="#FFFFFF" d="M167,149.8c0,0.3-0.2,0.5-0.5,0.5h-104c-0.3,0-0.5-0.2-0.5-0.5v-70c0-0.3,0.2-0.5,0.5-0.5h104        c0.3,0,0.5,0.2,0.5,0.5V149.8z"/>
						<path fill="#005E93" d="M166,80.3v68H64v-68H166 M167,77.3H63c-1.1,0-2,0.9-2,2v70c0,1.1,0.9,2,2,2h104c1.1,0,2-0.9,2-2v-70        C169,78.2,168.1,77.3,167,77.3L167,77.3z"/>
					</g>
					<g>
						<rect x="97" y="132.3" fill-rule="evenodd" clip-rule="evenodd" fill="#00A0DC" width="4" height="4"/>
					</g>
					<g>
						<rect x="129" y="132.3" fill-rule="evenodd" clip-rule="evenodd" fill="#00A0DC" width="4" height="4"/>
					</g>
					<g>
						<rect x="101" y="128.3" fill-rule="evenodd" clip-rule="evenodd" fill="#00A0DC" width="4" height="4"/>
					</g>
					<g>
						<rect x="125" y="128.3" fill-rule="evenodd" clip-rule="evenodd" fill="#00A0DC" width="4" height="4"/>
					</g>
					<g>
						<rect x="105" y="124.3" fill-rule="evenodd" clip-rule="evenodd" fill="#00A0DC" width="4" height="4"/>
					</g>
					<g>
						<rect x="109" y="124.3" fill-rule="evenodd" clip-rule="evenodd" fill="#00A0DC" width="4" height="4"/>
					</g>
					<g>
						<rect x="113" y="124.3" fill-rule="evenodd" clip-rule="evenodd" fill="#00A0DC" width="4" height="4"/>
					</g>
					<g>
						<rect x="117" y="124.3" fill-rule="evenodd" clip-rule="evenodd" fill="#00A0DC" width="4" height="4"/>
					</g>
					<g>
						<rect x="121" y="124.3" fill-rule="evenodd" clip-rule="evenodd" fill="#00A0DC" width="4" height="4"/>
					</g>
					<g>
						<rect x="64" y="80.3" fill-rule="evenodd" clip-rule="evenodd" fill="#9BDAF3" width="102" height="12"/>
					</g>
					<g>
						<circle fill-rule="evenodd" clip-rule="evenodd" fill="#005E93" cx="70" cy="86.3" r="2"/>
					</g>
					<g>
						<circle fill-rule="evenodd" clip-rule="evenodd" fill="#005E93" cx="77.5" cy="86.3" r="2"/>
					</g>
					<g>
						<circle fill-rule="evenodd" clip-rule="evenodd" fill="#005E93" cx="85" cy="86.3" r="2"/>
					</g>
					<g>
						<line fill="none" stroke="#005E93" stroke-width="3" stroke-miterlimit="10" x1="64" y1="93.8" x2="169" y2="93.8"/>
					</g>
					<rect x="98" y="108.3" fill-rule="evenodd" clip-rule="evenodd" fill="#00A0DC" width="6" height="6"/>
					<rect x="126" y="108.3" fill-rule="evenodd" clip-rule="evenodd" fill="#00A0DC" width="6" height="6"/>
				</g>
			</g>
		</g>
	</g>
</svg>